<?xml version="1.0" standalone="no"?>
<!DOCTYPE svg PUBLIC "-//W3C//DTD SVG 20010904//EN"
 "http://www.w3.org/TR/2001/REC-SVG-20010904/DTD/svg10.dtd">
<svg version="1.0" xmlns="http://www.w3.org/2000/svg"
 width="1680.000000pt" height="2048.000000pt" viewBox="0 0 1680.000000 2048.000000"
 preserveAspectRatio="xMidYMid meet">

<g transform="translate(0.000000,2048.000000) scale(0.100000,-0.100000)"
fill="#000000" stroke="none">
<path d="M3890 12534 c0 -3 107 -164 238 -359 l239 -354 7 291 6 291 -42 68
-43 69 -202 0 c-112 0 -203 -2 -203 -6z"/>
<path d="M12443 9168 c4 -83 7 -361 7 -617 l0 -466 133 -203 c72 -111 258
-394 411 -630 233 -355 1555 -2378 2136 -3267 197 -302 343 -526 414 -635 l55
-85 -1565 -3 -1565 -2 7 -1568 c4 -862 7 -1568 8 -1569 1 -1 971 967 2156
2152 l2154 2154 -2 1648 c-1 906 -5 2007 -9 2446 l-6 797 -2170 0 -2170 0 6
-152z"/>
<path d="M60 5392 l0 -957 2160 -2160 2160 -2160 0 3118 0 3117 -2160 0 -2160
0 0 -958z"/>
</g>
</svg>
